{"title":"The Ice Forest - La Foresta Di Ghiaccio (2014).DVDrip.XviD - Ita","uid":11803863,"size":1569456942,"categoryP":"video","categoryS":"movies","magnet":"?xt=urn:btih:c89abb6e56d57f2856f514c44b228dbde20b99eb&amp;dn=The+Ice+Forest+-+La+Foresta+Di+Ghiaccio+%282014%29.DVDrip.XviD+-+Ita&amp;tr=udp%3A%2F%2Ftracker.openbittorrent.com%3A80&amp;tr=udp%3A%2F%2Fopen.demonii.com%3A1337&amp;tr=udp%3A%2F%2Ftracker.coppersurfer.tk%3A6969&amp;tr=udp%3A%2F%2Fexodus.desync.com%3A6969","seeders":35,"leechers":4,"uploader":"robbyrs4","files":3,"time":1428510619,"description":"The Ice Forest - La Foresta Di Ghiaccio (2014).DVDrip.XviD - Italian Ac3  5.1 - Sub.Ita.Eng.MIRCrew\n\nINCLUDED SUBTITlE ENGLISH\n\n[center]\n\n[color=red][b][img]http://s19.postimg.org/9qdjr7p77/Original_release_2.png[/img]\n\n[u]NO FOUND ONLY ORIGINAL RELEASE[/u]\n\nLa Foresta Di Ghiaccio (2014)\n\n[img]http://i.imgur.com/ecG36qu.png[/img]\n\n\n[URL=http://www.imdb.com/title/tt2559786/[IMG]http://www.userlogos.org/files/logos/Sucka/imdb_new.png[/IMG][/URL]  \n\n[img]http://s19.postimg.org/vz5tzn42b/1_scheda.png[/img]\n\nAnno:2014\nNazione:Italia\nDistribuzione:Fandango\nProduzione:Ascent Film, Rai Cinema\nDurata:99 min\nData uscita in Italia:13 novembre 2014\nGenere:thriller\nRegia:Claudio Noce\nSceneggiatura: Claudio Noce , Diego Ribon, Elisa Amoruso, Francesca Manieri\nFotografia: Michele D'Attanasio\nMontaggio: Andrea Maguolo, Paola Freddi\nScenografia: Daniele Frabetti\nCostumi: Maria Cristina La Parola\nSoggetto: Claudio Noce , Elisa Amoruso\n\n[img]http://s19.postimg.org/q8fnlww2b/1_cast.png[/img]\n\nSecondo:Emir Kusturica\nLorenzo:Adriano Giannini\nLana:Ksenia Rappoport\nPietro:Domenico Diele\nStanislao:Giovanni Vettorazzo\nSandra:Maria Roveran\nLazlo:Rinat Khismatouline\nAttilio:Danilo Panzeri\nManlio:Marco Tenti\nDavide:Adriano Mosca\nDrago:Stefano Pellizzari\nVladan:Nusret Salija\n  \n[img]http://s19.postimg.org/okgi79i6r/1_trama.png[/img]. \n\nCon una tempesta che incombe minacciosa sullo sfondo, un giovane tecnico specializzato arriva nella valle per riparare un guasto alla centrale elettrica in alta quota, e si trova improvvisamente di fronte ad una strana sparizione. Si consuma quindi lo scontro fra il giovane e due fratelli che vivono e lavorano nella zona.....\n\n[img]http://s19.postimg.org/fzn6g380j/1_story.png[/img]\n\nIn the harsh snowy landscape of the Italian Alps, a young technician arrives to repair an electric power plant of a village plagued by blackouts. There, he encounters a strange disappearance..........\n &lt;a href=&quot;\nhttp://extraimago.com/images/2015/04/08/vlcsnap-2015-04-08-16h18m48s175.png[/img]&quot; rel=&quot;nofollow&quot; target=&quot;_NEW&quot;&gt;\nhttp://extraimago.com/images/2015/04/08/vlcsnap-2015-04-08-16h18m48s175.png[/img]&lt;/a&gt; &lt;a href=&quot;\nhttp://extraimago.com/images/2015/04/08/vlcsnap-2015-04-08-16h19m00s32.png[/img]&quot; rel=&quot;nofollow&quot; target=&quot;_NEW&quot;&gt;\nhttp://extraimago.com/images/2015/04/08/vlcsnap-2015-04-08-16h19m00s32.png[/img]&lt;/a&gt; &lt;a href=&quot;\nhttp://extraimago.com/images/2015/04/08/vlcsnap-2015-04-08-16h19m15s182.png[/img]&quot; rel=&quot;nofollow&quot; target=&quot;_NEW&quot;&gt;\nhttp://extraimago.com/images/2015/04/08/vlcsnap-2015-04-08-16h19m15s182.png[/img]&lt;/a&gt;\n\n[IMG]http://img153.imageshack.us/img153/3158/restateinseedblood.gif[/img]\n\n\n[img]http://imgur.com/lvhU6.gif[/img]\n\n\n[img]http://s19.postimg.org/a2jaz9qvn/1_dati.png[/img]\n\n\n[spoiler]\nGeneral\nComplete name                            : La Foresta Di Ghiaccio (2014).ita.sub.ita.eng.MIRCrew.multisubLa Foresta Di Ghiaccio (2014).ita.sub.ita.eng.MIRCrew.avi\nFormat                                   : AVI\nFormat/Info                              : Audio Video Interleave\nFile size                                : 1.46 GiB\nDuration                                 : 1h 43mn\nOverall bit rate                         : 2 023 Kbps\nWriting application                      : VirtualDubMod 1.5.4.1 (build 2178/release)\nWriting library                          : VirtualDubMod build 2178/release\n\nVideo\nID                                       : 0\nFormat                                   : MPEG-4 Visual\nFormat profile                           : Advanced Simple@L5\nFormat settings, BVOP                    : No\nFormat settings, QPel                    : No\nFormat settings, GMC                     : No warppoints\nFormat settings, Matrix                  : Custom\nCodec ID                                 : XVID\nCodec ID/Hint                            : XviD\nDuration                                 : 1h 43mn\nBit rate                                 : 1 568 Kbps\nWidth                                    : 720 pixels\nHeight                                   : 304 pixels\nDisplay aspect ratio                     : 2.35:1\nFrame rate                               : 25.000 fps\nColor space                              : YUV\nChroma subsampling                       : 4:2:0\nBit depth                                : 8 bits\nScan type                                : Progressive\nCompression mode                         : Lossy\nBits/(Pixel*Frame)                       : 0.287\nStream size                              : 1.13 GiB (78%)\nWriting library                          : XviD 64\n\nAudio\nID                                       : 1\nFormat                                   : AC-3\nFormat/Info                              : Audio Coding 3\nMode extension                           : CM (complete main)\nCodec ID                                 : 2000\nDuration                                 : 1h 43mn\nBit rate mode                            : Constant\nBit rate                                 : 448 Kbps\nChannel(s)                               : 6 channels\nChannel positions                        : Front: L C R, Side: L R, LFE\nSampling rate                            : 48.0 KHz\nBit depth                                : 16 bits\nCompression mode                         : Lossy\nStream size                              : 331 MiB (22%)\nAlignment                                : Split accross interleaves\nInterleave, duration                     : 96 ms (2.40 video frames)\nInterleave, preload duration             : 96 ms\nLanguage                                 : Italian\n\n\n[/spoiler]\n\n[/color][/b][/center]","torrent":{"xt":"urn:btih:c89abb6e56d57f2856f514c44b228dbde20b99eb","amp;dn":"The+Ice+Forest+-+La+Foresta+Di+Ghiaccio+%282014%29.DVDrip.XviD+-+Ita","amp;tr":["udp%3A%2F%2Ftracker.openbittorrent.com%3A80","udp%3A%2F%2Fopen.demonii.com%3A1337","udp%3A%2F%2Ftracker.coppersurfer.tk%3A6969","udp%3A%2F%2Fexodus.desync.com%3A6969"],"infoHash":"c89abb6e56d57f2856f514c44b228dbde20b99eb","infoHashBuffer":{"type":"Buffer","data":[200,154,187,110,86,213,127,40,86,245,20,196,75,34,141,189,226,11,153,235]},"announce":[],"urlList":[]}}